%TF.GenerationSoftware,KiCad,Pcbnew,10.0.0*%
%TF.CreationDate,2026-07-02T11:26:07-04:00*%
%TF.ProjectId,Accelerometer PCB (No Volt Reg),41636365-6c65-4726-9f6d-657465722050,rev?*%
%TF.SameCoordinates,Original*%
%TF.FileFunction,Paste,Top*%
%TF.FilePolarity,Positive*%
%FSLAX46Y46*%
G04 Gerber Fmt 4.6, Leading zero omitted, Abs format (unit mm)*
G04 Created by KiCad (PCBNEW 10.0.0) date 2026-07-02 11:26:07*
%MOMM*%
%LPD*%
G01*
G04 APERTURE LIST*
G04 Aperture macros list*
%AMRoundRect*
0 Rectangle with rounded corners*
0 $1 Rounding radius*
0 $2 $3 $4 $5 $6 $7 $8 $9 X,Y pos of 4 corners*
0 Add a 4 corners polygon primitive as box body*
4,1,4,$2,$3,$4,$5,$6,$7,$8,$9,$2,$3,0*
0 Add four circle primitives for the rounded corners*
1,1,$1+$1,$2,$3*
1,1,$1+$1,$4,$5*
1,1,$1+$1,$6,$7*
1,1,$1+$1,$8,$9*
0 Add four rect primitives between the rounded corners*
20,1,$1+$1,$2,$3,$4,$5,0*
20,1,$1+$1,$4,$5,$6,$7,0*
20,1,$1+$1,$6,$7,$8,$9,0*
20,1,$1+$1,$8,$9,$2,$3,0*%
G04 Aperture macros list end*
%ADD10R,1.910000X1.290000*%
%ADD11RoundRect,0.155000X-0.465000X-0.805000X0.465000X-0.805000X0.465000X0.805000X-0.465000X0.805000X0*%
%ADD12R,1.250000X0.855600*%
%ADD13R,1.380000X0.920000*%
%ADD14R,2.100000X1.400000*%
%ADD15R,3.500000X1.000000*%
%ADD16R,3.400000X1.500000*%
%ADD17RoundRect,0.093750X-0.856250X-0.206250X0.856250X-0.206250X0.856250X0.206250X-0.856250X0.206250X0*%
%ADD18RoundRect,0.093750X0.206250X-0.856250X0.206250X0.856250X-0.206250X0.856250X-0.206250X-0.856250X0*%
%ADD19R,1.092200X0.711200*%
%ADD20R,0.939800X0.889000*%
%ADD21R,0.787400X1.041400*%
%ADD22R,1.828800X1.143000*%
%ADD23R,3.327400X0.711200*%
%ADD24R,2.794000X0.863600*%
%ADD25R,0.990600X2.006600*%
%ADD26R,0.855600X1.250000*%
%ADD27R,1.120000X1.240000*%
G04 APERTURE END LIST*
D10*
%TO.C,C1*%
X131000000Y-79360000D03*
X131000000Y-76440000D03*
%TD*%
D11*
%TO.C,C6*%
X128510000Y-88000000D03*
X131490000Y-88000000D03*
%TD*%
D12*
%TO.C,C5*%
X164260000Y-115867800D03*
X164260000Y-114012200D03*
%TD*%
D13*
%TO.C,R1*%
X119620000Y-110340000D03*
X119620000Y-108430000D03*
%TD*%
D12*
%TO.C,C2*%
X179300000Y-74855600D03*
X179300000Y-73000000D03*
%TD*%
D14*
%TO.C,SW2*%
X133262500Y-121550000D03*
X133262500Y-117050000D03*
X124162500Y-121550000D03*
X124162500Y-117050000D03*
%TD*%
D15*
%TO.C,J1*%
X122070000Y-82340000D03*
X122070000Y-84340000D03*
D16*
X116320000Y-79990000D03*
X116320000Y-86690000D03*
%TD*%
D13*
%TO.C,R2*%
X115520000Y-108430000D03*
X115520000Y-110340000D03*
%TD*%
D17*
%TO.C,U1*%
X136931414Y-76485656D03*
X136931414Y-79025656D03*
X136931414Y-81565656D03*
X136931414Y-84105656D03*
X136931414Y-85375656D03*
X136931414Y-86645656D03*
X136931414Y-87915656D03*
X136931414Y-89185656D03*
X136931414Y-90455656D03*
X136931414Y-91725656D03*
X136931414Y-92995656D03*
X136931414Y-94265656D03*
X136931414Y-95535656D03*
X136931414Y-96805656D03*
X136931414Y-98075656D03*
X136931414Y-99345656D03*
X136931414Y-100615656D03*
X136931414Y-101885656D03*
X136931414Y-103155656D03*
X136931414Y-104425656D03*
X136931414Y-105695656D03*
X136931414Y-106965656D03*
X136931414Y-108235656D03*
X136931414Y-109505656D03*
X136931414Y-110775656D03*
X136931414Y-112045656D03*
X136931414Y-113315656D03*
X136931414Y-114585656D03*
X136931414Y-115855656D03*
D18*
X142770000Y-121028586D03*
X144040000Y-121028586D03*
X145310000Y-121028586D03*
X146580000Y-121028586D03*
X147850000Y-121028586D03*
X149120000Y-121028586D03*
X150390000Y-121028586D03*
X151660000Y-121028586D03*
X152930000Y-121028586D03*
X154200000Y-121028586D03*
D17*
X159968586Y-115850000D03*
X159968586Y-114580000D03*
X159968586Y-113310000D03*
X159968586Y-112040000D03*
X159968586Y-110770000D03*
X159968586Y-109500000D03*
X159968586Y-108230000D03*
X159968586Y-106960000D03*
X159968586Y-105690000D03*
X159968586Y-104420000D03*
X159968586Y-103150000D03*
X159968586Y-101880000D03*
X159968586Y-100610000D03*
X159968586Y-99340000D03*
X159968586Y-98070000D03*
X159968586Y-96800000D03*
X159968586Y-95530000D03*
X159968586Y-94260000D03*
X159968586Y-92990000D03*
X159968586Y-91720000D03*
X159968586Y-90450000D03*
X159968586Y-89180000D03*
X159968586Y-87910000D03*
X159968586Y-86640000D03*
X136931414Y-72675656D03*
X136931414Y-73945656D03*
%TD*%
D14*
%TO.C,SW1*%
X133250000Y-113350000D03*
X133250000Y-108850000D03*
X124150000Y-113350000D03*
X124150000Y-108850000D03*
%TD*%
D19*
%TO.C,J3*%
X118576900Y-100980000D03*
X118576900Y-99880000D03*
X118576900Y-98780000D03*
X118576900Y-97679999D03*
X118576900Y-96579999D03*
X118576900Y-95479999D03*
X118576900Y-94379998D03*
X118576900Y-93280000D03*
D20*
X131041899Y-102770000D03*
D21*
X131116899Y-98505000D03*
D22*
X118591899Y-104860000D03*
D23*
X129841899Y-105080000D03*
X129841899Y-92120000D03*
D24*
X119076899Y-92200000D03*
%TD*%
D25*
%TO.C,J2*%
X177080000Y-115840001D03*
X174540000Y-112540000D03*
X172000000Y-115840001D03*
X169460000Y-112540000D03*
%TD*%
D26*
%TO.C,C3*%
X131527800Y-85000000D03*
X129672200Y-85000000D03*
%TD*%
D27*
%TO.C,D1*%
X126000000Y-79400000D03*
X126000000Y-82400000D03*
%TD*%
D12*
%TO.C,C4*%
X165000000Y-89512200D03*
X165000000Y-91367800D03*
%TD*%
M02*
